<svg xmlns="http://www.w3.org/2000/svg" version="1.1" xmlns:xlink="http://www.w3.org/1999/xlink" xmlns:svgjs="http://svgjs.dev/svgjs" width="1000" height="1000"><style>
    #light-icon {
      display: inline;
    }
    #dark-icon {
      display: none;
    }

    @media (prefers-color-scheme: dark) {
      #light-icon {
        display: none;
      }
      #dark-icon {
        display: inline;
      }
    }
  </style><g id="light-icon"><svg xmlns="http://www.w3.org/2000/svg" version="1.1" xmlns:xlink="http://www.w3.org/1999/xlink" xmlns:svgjs="http://svgjs.dev/svgjs" width="1000" height="1000"><g clip-path="url(#SvgjsClipPath1328)"><rect width="1000" height="1000" fill="#006494"></rect><g transform="matrix(21.875,0,0,21.875,150,150)"><svg xmlns="http://www.w3.org/2000/svg" version="1.1" xmlns:xlink="http://www.w3.org/1999/xlink" xmlns:svgjs="http://svgjs.dev/svgjs" width="32" height="32"><svg width="32" height="32" viewBox="0 0 32 32" fill="none" xmlns="http://www.w3.org/2000/svg">
<path d="M1.2325 14.2325L3.2325 12.2325C3.60322 11.8621 4.08095 11.6176 4.59819 11.5335C5.11543 11.4494 5.64603 11.5299 6.115 11.7637L11.765 6.11373C11.531 5.64489 11.4503 5.11437 11.5341 4.59713C11.618 4.0799 11.8623 3.6021 12.2325 3.23123L14.2325 1.23123C14.7013 0.762556 15.3371 0.499268 16 0.499268C16.6629 0.499268 17.2987 0.762556 17.7675 1.23123L25.7675 9.23123C26.2362 9.70005 26.4995 10.3358 26.4995 10.9987C26.4995 11.6616 26.2362 12.2974 25.7675 12.7662L23.7675 14.7662C23.3979 15.1358 22.9219 15.3803 22.4062 15.4653C21.8905 15.5502 21.3611 15.4714 20.8925 15.24L28.33 22.6725C29.0802 23.4227 29.5017 24.4402 29.5017 25.5012C29.5017 26.5622 29.0802 27.5798 28.33 28.33C27.5798 29.0802 26.5622 29.5017 25.5013 29.5017C24.4403 29.5017 23.4227 29.0802 22.6725 28.33L15.25 20.9012C15.4794 21.3692 15.5568 21.8972 15.4715 22.4113C15.3861 22.9255 15.1421 23.4 14.7738 23.7687L12.7738 25.7687C12.5416 26.001 12.266 26.1852 11.9626 26.3109C11.6592 26.4366 11.334 26.5013 11.0056 26.5013C10.6772 26.5013 10.3521 26.4366 10.0487 26.3109C9.74531 26.1852 9.46966 26.001 9.2375 25.7687L1.2375 17.7687C1.00525 17.5366 0.821009 17.2609 0.695309 16.9576C0.569609 16.6542 0.504911 16.329 0.504911 16.0006C0.504911 15.6722 0.569609 15.347 0.695309 15.0437C0.821009 14.7403 1.00525 14.4646 1.2375 14.2325H1.2325ZM22 12.2925L23.295 11L16 3.70623L14.7075 4.99998L22 12.2925ZM24.795 26.2087C24.9826 26.3962 25.2371 26.5015 25.5023 26.5013C25.7676 26.5012 26.0219 26.3957 26.2094 26.2081C26.3969 26.0205 26.5021 25.766 26.502 25.5008C26.5019 25.2355 26.3964 24.9812 26.2088 24.7937L18.7688 17.3537L17.355 18.7687L24.795 26.2087ZM13.2075 18.6725L18.6725 13.2075L13.7975 8.33248L8.3325 13.7975L13.2075 18.6725ZM11.0013 23.2975L12.2938 22L5 14.7075L3.7075 16L11.0013 23.2975Z" fill="white"></path>
</svg></svg></g></g><defs><clipPath id="SvgjsClipPath1328"><rect width="1000" height="1000" x="0" y="0" rx="350" ry="350"></rect></clipPath></defs></svg></g><g id="dark-icon"><svg xmlns="http://www.w3.org/2000/svg" version="1.1" xmlns:xlink="http://www.w3.org/1999/xlink" xmlns:svgjs="http://svgjs.dev/svgjs" width="1000" height="1000"><g clip-path="url(#SvgjsClipPath1329)"><rect width="1000" height="1000" fill="#006494"></rect><g transform="matrix(21.875,0,0,21.875,150,150)"><svg xmlns="http://www.w3.org/2000/svg" version="1.1" xmlns:xlink="http://www.w3.org/1999/xlink" xmlns:svgjs="http://svgjs.dev/svgjs" width="32" height="32"><svg width="32" height="32" viewBox="0 0 32 32" fill="none" xmlns="http://www.w3.org/2000/svg">
<path d="M1.2325 14.2325L3.2325 12.2325C3.60322 11.8621 4.08095 11.6176 4.59819 11.5335C5.11543 11.4494 5.64603 11.5299 6.115 11.7637L11.765 6.11373C11.531 5.64489 11.4503 5.11437 11.5341 4.59713C11.618 4.0799 11.8623 3.6021 12.2325 3.23123L14.2325 1.23123C14.7013 0.762556 15.3371 0.499268 16 0.499268C16.6629 0.499268 17.2987 0.762556 17.7675 1.23123L25.7675 9.23123C26.2362 9.70005 26.4995 10.3358 26.4995 10.9987C26.4995 11.6616 26.2362 12.2974 25.7675 12.7662L23.7675 14.7662C23.3979 15.1358 22.9219 15.3803 22.4062 15.4653C21.8905 15.5502 21.3611 15.4714 20.8925 15.24L28.33 22.6725C29.0802 23.4227 29.5017 24.4402 29.5017 25.5012C29.5017 26.5622 29.0802 27.5798 28.33 28.33C27.5798 29.0802 26.5622 29.5017 25.5013 29.5017C24.4403 29.5017 23.4227 29.0802 22.6725 28.33L15.25 20.9012C15.4794 21.3692 15.5568 21.8972 15.4715 22.4113C15.3861 22.9255 15.1421 23.4 14.7738 23.7687L12.7738 25.7687C12.5416 26.001 12.266 26.1852 11.9626 26.3109C11.6592 26.4366 11.334 26.5013 11.0056 26.5013C10.6772 26.5013 10.3521 26.4366 10.0487 26.3109C9.74531 26.1852 9.46966 26.001 9.2375 25.7687L1.2375 17.7687C1.00525 17.5366 0.821009 17.2609 0.695309 16.9576C0.569609 16.6542 0.504911 16.329 0.504911 16.0006C0.504911 15.6722 0.569609 15.347 0.695309 15.0437C0.821009 14.7403 1.00525 14.4646 1.2375 14.2325H1.2325ZM22 12.2925L23.295 11L16 3.70623L14.7075 4.99998L22 12.2925ZM24.795 26.2087C24.9826 26.3962 25.2371 26.5015 25.5023 26.5013C25.7676 26.5012 26.0219 26.3957 26.2094 26.2081C26.3969 26.0205 26.5021 25.766 26.502 25.5008C26.5019 25.2355 26.3964 24.9812 26.2088 24.7937L18.7688 17.3537L17.355 18.7687L24.795 26.2087ZM13.2075 18.6725L18.6725 13.2075L13.7975 8.33248L8.3325 13.7975L13.2075 18.6725ZM11.0013 23.2975L12.2938 22L5 14.7075L3.7075 16L11.0013 23.2975Z" fill="white"></path>
</svg></svg></g></g><defs><clipPath id="SvgjsClipPath1329"><rect width="1000" height="1000" x="0" y="0" rx="350" ry="350"></rect></clipPath></defs></svg></g></svg>